<svg className="size-6 " viewBox="-0.268 0.023 500.013 499.692" xmlns="http://www.w3.org/2000/svg">
      <g transform="matrix(0.1, 0, 0, -0.1, 0.751896, 700.725413)">
        <path fill="#fff" d="M2332.1,7005.6c-0.7-0.7-29.3-4.3-62.9-6.4c-57.9-4.3-85-7.9-132.2-15c-11.4-2.1-35.7-5.7-53.6-7.9 c-17.9-2.1-75.7-13.6-128.6-25C1436,6839.2,958,6556.9,603.5,6151.7c-47.2-53.6-138.6-170.8-172.2-221.5 c-7.1-10-22.2-31.4-34.3-48.6c-11.4-16.4-21.4-32.2-21.4-34.3c0-2.1-10.7-20.7-23.6-40.7c-38.6-59.3-50.7-81.5-103.6-187.2 c-43.6-89.3-115-255.1-118.6-277.3c-0.7-5-2.9-12.1-5.7-15.7c-12.9-20.7-81.5-282.3-94.3-357.3C0.4,4791.9-6,4729.7-6.7,4604.7 v-92.9l620.2-0.7l619.5-1.4l0.7,15.7c2.9,97.9,11.4,167.2,30.7,259.4c31.4,147.2,105.8,313.7,204.4,453.8 c51.4,72.9,185.8,213.7,255.1,265.8c261.5,197.2,593.1,288,913.2,249.4c137.9-17.1,258.7-52.2,388-113.6 c303.7-143.6,538.8-405.9,645.3-718.9c30-88.6,30-88.6,45.7-166.5c16.4-84.3,22.2-137.9,24.3-207.9l0.7-37.2h621.7 c568.8,0,621.7,1.4,622.4,12.1c1.4,21.4-1.4,132.2-4.3,168.6c-5.7,63.6-11.4,120.8-14.3,139.3c-1.4,10-5,32.2-7.1,50 c-2.1,17.9-9.3,57.9-15,89.3c-6.4,31.4-12.1,65-14.3,75c-5.7,30.7-44.3,172.9-60.7,225.1c-9.3,27.9-16.4,51.4-17.1,53.6 c-2.1,7.1-12.9,34.3-44.3,114.3c-35,89.3-103.6,232.2-137.9,289.4c-11.4,20-24.3,42.2-27.9,50c-11.4,25.7-122.9,191.5-170.8,253.7 c-116.5,151.5-314.4,353-433.7,440.2c-15.7,11.4-32.9,25-37.9,30c-5.7,4.3-40,29.3-76.5,55c-243.7,170.1-510.2,294.4-796.7,370.9 c-122.2,32.9-192.9,45.7-400.2,72.9C2692.2,7003.5,2336.4,7009.9,2332.1,7005.6z"/>
        <path fill="#fff" d="M1252.4,4509.6 c-9.3-2.1-12.1-10.7-12.9-39.3c-0.7-55.7-5.7-109.3-17.1-173.6c-15.7-90.8-54.3-227.2-68.6-241.5c-3.6-4.3-6.4-10.7-6.4-15.7 c0-10.7-36.4-88.6-69.3-147.2c-47.9-85.7-118.6-177.9-195.1-255.8c-87.9-88.6-110.8-108.6-194.4-165.1 c-52.9-35.7-195.8-113.6-217.2-118.6c-3.6-0.7-32.2-11.4-63.6-22.9c-79.3-30-160.8-50-250.1-62.2c-55-7.9-67.9-8.6-119.3-9.3 l-48.6-0.7v-623.8v-623.8l64.3,1.4c64.3,1.4,178.6,8.6,208.7,13.6c9.3,1.4,35.7,4.3,59.3,7.1c51.4,5.7,248,43.6,280.1,54.3 c12.1,3.6,31.4,8.6,42.2,10.7c37.9,7.1,230.8,72.9,310.8,107.2c96.5,40,244.4,115.8,324.4,165.1c66.5,40.7,120,75.7,125.1,80.7 c2.1,2.1,20,14.3,39.3,27.9c159.3,108.6,353,293.7,498.8,474.5c227.2,283,413.7,668.8,480.2,993.3c1.4,7.1,4.3,18.6,6.4,25 c2.1,6.4,5.7,23.6,7.9,37.2s5.7,30,7.1,35.7c1.4,5.7,4.3,20.7,6.4,32.2c1.4,12.1,5,34.3,7.9,50c12.9,82.9,17.1,126.5,22.9,227.2 c4.3,75,12.9,105.8,13.6,46.4c0-52.2,11.4-186.5,20.7-238c1.4-11.4,5-34.3,7.9-50c2.1-15.7,8.6-50.7,13.6-78.6 c5.7-27.2,11.4-57.9,13.6-67.9c5.7-35,27.2-112.2,55-203.7c91.5-293,233.7-558.8,435.2-815.3c55-70,245.1-268.7,307.3-321.6 c300.8-254.4,603.8-418,964.7-520.9c110-31.4,265.8-62.9,353.7-72.2c23.6-2.9,44.3-5.7,46.4-6.4c5.7-3.6,156.5-12.1,220.8-13.6 l54.3-0.7l1.4,620.2c0.7,468-1.4,621-7.1,623.1c-5,1.4-42.9,4.3-85,6.4c-42.2,2.9-80.7,5.7-85.7,7.9c-5,1.4-22.2,5-37.9,7.1 c-108.6,15.7-271.5,72.9-378.7,132.2c-82.2,46.4-82.2,45.7-150.1,96.5c-149.3,110.8-263,240.8-352.3,403 c-20.7,37.2-37.2,67.9-37.2,69.3s-7.9,19.3-16.4,40c-25,56.5-57.2,151.5-66.5,195.1c-1.4,7.9-5.7,28.6-10,46.4 c-12.9,59.3-22.2,138.6-24.3,211.5c-0.7,16.4-2.9,32.9-5.7,35c-3.6,4.3-908.2,6.4-1238.4,3.6c-15.7,0-298.7,0.7-629.5,1.4 C1534.6,4511.1,1258.8,4511.1,1252.4,4509.6z M2494.3,4465.3c2.1-3.6,0.7-7.1-2.9-7.1c-4.3,0-7.9,3.6-7.9,7.1 c0,4.3,1.4,7.1,2.9,7.1C2488.6,4472.5,2492.1,4469.6,2494.3,4465.3z"/>
      </g>
    </svg>
